<?xml version="1.0" encoding="utf-8"?>
<!-- Generator: Adobe Illustrator 23.0.1, SVG Export Plug-In . SVG Version: 6.00 Build 0)  -->
<svg version="1.1" id="Layer_2" xmlns="http://www.w3.org/2000/svg" xmlns:xlink="http://www.w3.org/1999/xlink" x="0px" y="0px"
	 viewBox="0 0 1920 1080" style="enable-background:new 0 0 1920 1080;" xml:space="preserve">
<style type="text/css">
	.st0{opacity:0.2;fill:#FFFFFF;}
	.st1{opacity:0.15;fill:#FFFFFF;}
	.st2{opacity:0.1;fill:#FFFFFF;}
	.st3{opacity:5.000000e-02;fill:#FFFFFF;}
	.st4{opacity:1.000000e-02;fill:#FFFFFF;}
</style>
<circle class="st0" cx="53.8" cy="62.7" r="35.7"/>
<circle class="st0" cx="159" cy="63.8" r="35.7"/>
<circle class="st0" cx="253.9" cy="63.8" r="35.7"/>
<circle class="st0" cx="359.1" cy="63.9" r="35.7"/>
<circle class="st0" cx="457.2" cy="63.7" r="35.7"/>
<circle class="st0" cx="562.4" cy="64.8" r="35.7"/>
<circle class="st0" cx="657.3" cy="64.8" r="35.7"/>
<circle class="st0" cx="762.5" cy="64.9" r="35.7"/>
<circle class="st0" cx="859.6" cy="62.7" r="35.7"/>
<circle class="st0" cx="964.7" cy="63.8" r="35.7"/>
<circle class="st0" cx="1059.7" cy="63.8" r="35.7"/>
<circle class="st0" cx="1164.9" cy="63.9" r="35.7"/>
<circle class="st0" cx="1263" cy="63.7" r="35.7"/>
<circle class="st0" cx="1368.1" cy="64.8" r="35.7"/>
<circle class="st0" cx="1463.1" cy="64.8" r="35.7"/>
<circle class="st0" cx="1568.3" cy="64.9" r="35.7"/>
<circle class="st0" cx="1659.2" cy="60.2" r="35.7"/>
<circle class="st0" cx="1754.2" cy="60.2" r="35.7"/>
<circle class="st0" cx="1859.4" cy="60.3" r="35.7"/>
<circle class="st1" cx="56.8" cy="156.1" r="35.7"/>
<circle class="st1" cx="162" cy="157.3" r="35.7"/>
<circle class="st1" cx="257" cy="157.2" r="35.7"/>
<circle class="st1" cx="362.2" cy="157.3" r="35.7"/>
<circle class="st1" cx="460.2" cy="157.2" r="35.7"/>
<circle class="st1" cx="565.4" cy="158.3" r="35.7"/>
<circle class="st1" cx="660.4" cy="158.2" r="35.7"/>
<circle class="st1" cx="765.6" cy="158.3" r="35.7"/>
<circle class="st1" cx="862.6" cy="156.1" r="35.7"/>
<circle class="st1" cx="967.8" cy="157.3" r="35.7"/>
<circle class="st1" cx="1062.8" cy="157.2" r="35.7"/>
<circle class="st1" cx="1168" cy="157.3" r="35.7"/>
<circle class="st1" cx="1266" cy="157.2" r="35.7"/>
<circle class="st1" cx="1371.2" cy="158.3" r="35.7"/>
<circle class="st1" cx="1466.2" cy="158.2" r="35.7"/>
<circle class="st1" cx="1571.4" cy="158.3" r="35.7"/>
<circle class="st1" cx="1662.3" cy="153.7" r="35.7"/>
<circle class="st1" cx="1757.3" cy="153.6" r="35.7"/>
<circle class="st1" cx="1862.4" cy="153.7" r="35.7"/>
<circle class="st2" cx="59.9" cy="245" r="35.7"/>
<circle class="st2" cx="165.1" cy="246.1" r="35.7"/>
<circle class="st2" cx="260.1" cy="246.1" r="35.7"/>
<circle class="st2" cx="365.3" cy="246.2" r="35.7"/>
<circle class="st2" cx="463.3" cy="246" r="35.7"/>
<circle class="st2" cx="568.5" cy="247.1" r="35.7"/>
<circle class="st2" cx="663.5" cy="247.1" r="35.7"/>
<circle class="st2" cx="768.7" cy="247.2" r="35.7"/>
<circle class="st2" cx="865.7" cy="245" r="35.7"/>
<circle class="st2" cx="970.9" cy="246.1" r="35.7"/>
<circle class="st2" cx="1065.9" cy="246.1" r="35.7"/>
<circle class="st2" cx="1171" cy="246.2" r="35.7"/>
<circle class="st2" cx="1269.1" cy="246" r="35.7"/>
<circle class="st2" cx="1374.3" cy="247.1" r="35.7"/>
<circle class="st2" cx="1469.3" cy="247.1" r="35.7"/>
<circle class="st2" cx="1574.4" cy="247.2" r="35.7"/>
<circle class="st2" cx="1665.3" cy="242.5" r="35.7"/>
<circle class="st2" cx="1760.3" cy="242.5" r="35.7"/>
<circle class="st2" cx="1865.5" cy="242.6" r="35.7"/>
<circle class="st3" cx="56.8" cy="338.4" r="35.7"/>
<circle class="st3" cx="162" cy="339.6" r="35.7"/>
<circle class="st3" cx="257" cy="339.5" r="35.7"/>
<circle class="st3" cx="362.2" cy="339.6" r="35.7"/>
<circle class="st3" cx="460.2" cy="339.5" r="35.7"/>
<circle class="st3" cx="565.4" cy="340.6" r="35.7"/>
<circle class="st3" cx="660.4" cy="340.5" r="35.7"/>
<circle class="st3" cx="765.6" cy="340.6" r="35.7"/>
<circle class="st3" cx="862.6" cy="338.4" r="35.7"/>
<circle class="st3" cx="967.8" cy="339.6" r="35.7"/>
<circle class="st3" cx="1062.8" cy="339.5" r="35.7"/>
<circle class="st3" cx="1168" cy="339.6" r="35.7"/>
<circle class="st3" cx="1266" cy="339.5" r="35.7"/>
<circle class="st3" cx="1371.2" cy="340.6" r="35.7"/>
<circle class="st3" cx="1466.2" cy="340.5" r="35.7"/>
<circle class="st3" cx="1571.4" cy="340.6" r="35.7"/>
<circle class="st3" cx="1662.3" cy="336" r="35.7"/>
<circle class="st3" cx="1757.3" cy="335.9" r="35.7"/>
<circle class="st3" cx="1862.4" cy="336" r="35.7"/>
<circle class="st4" cx="59.9" cy="427.3" r="35.7"/>
<circle class="st4" cx="165.1" cy="428.4" r="35.7"/>
<circle class="st4" cx="260.1" cy="428.4" r="35.7"/>
<circle class="st4" cx="365.3" cy="428.5" r="35.7"/>
<circle class="st4" cx="463.3" cy="428.3" r="35.7"/>
<circle class="st4" cx="568.5" cy="429.4" r="35.7"/>
<circle class="st4" cx="663.5" cy="429.4" r="35.7"/>
<circle class="st4" cx="768.7" cy="429.5" r="35.7"/>
<circle class="st4" cx="865.7" cy="427.3" r="35.7"/>
<circle class="st4" cx="970.9" cy="428.4" r="35.7"/>
<circle class="st4" cx="1065.9" cy="428.4" r="35.7"/>
<circle class="st4" cx="1171" cy="428.5" r="35.7"/>
<circle class="st4" cx="1269.1" cy="428.3" r="35.7"/>
<circle class="st4" cx="1374.3" cy="429.4" r="35.7"/>
<circle class="st4" cx="1469.3" cy="429.4" r="35.7"/>
<circle class="st4" cx="1574.4" cy="429.5" r="35.7"/>
<circle class="st4" cx="1665.3" cy="424.8" r="35.7"/>
<circle class="st4" cx="1760.3" cy="424.8" r="35.7"/>
<circle class="st4" cx="1865.5" cy="424.9" r="35.7"/>
</svg>
